<svg width="120" height="160" viewBox="0 0 120 160" fill="none" xmlns="http://www.w3.org/2000/svg">
    <path d="M51.2461 124.938V136.34C51.2461 138.152 50.6641 139.59 49.5 140.652C48.3438 141.707 46.8008 142.234 44.8711 142.234C42.918 142.234 41.3672 141.715 40.2188 140.676C39.0703 139.629 38.4961 138.18 38.4961 136.328V124.938H41.4492V136.352C41.4492 137.492 41.7383 138.363 42.3164 138.965C42.8945 139.566 43.7461 139.867 44.8711 139.867C47.1523 139.867 48.293 138.664 48.293 136.258V124.938H51.2461ZM54.4219 142V124.938H60.2695C62.1992 124.938 63.668 125.324 64.6758 126.098C65.6836 126.871 66.1875 128.023 66.1875 129.555C66.1875 130.336 65.9766 131.039 65.5547 131.664C65.1328 132.289 64.5156 132.773 63.7031 133.117C64.625 133.367 65.3359 133.84 65.8359 134.535C66.3438 135.223 66.5977 136.051 66.5977 137.02C66.5977 138.621 66.082 139.852 65.0508 140.711C64.0273 141.57 62.5586 142 60.6445 142H54.4219ZM57.3867 134.301V139.633H60.6797C61.6094 139.633 62.3359 139.402 62.8594 138.941C63.3828 138.48 63.6445 137.84 63.6445 137.02C63.6445 135.246 62.7383 134.34 60.9258 134.301H57.3867ZM57.3867 132.121H60.293C61.2148 132.121 61.9336 131.914 62.4492 131.5C62.9727 131.078 63.2344 130.484 63.2344 129.719C63.2344 128.875 62.9922 128.266 62.5078 127.891C62.0312 127.516 61.2852 127.328 60.2695 127.328H57.3867V132.121ZM69.5625 142V124.938H75.4102C77.3398 124.938 78.8086 125.324 79.8164 126.098C80.8242 126.871 81.3281 128.023 81.3281 129.555C81.3281 130.336 81.1172 131.039 80.6953 131.664C80.2734 132.289 79.6562 132.773 78.8438 133.117C79.7656 133.367 80.4766 133.84 80.9766 134.535C81.4844 135.223 81.7383 136.051 81.7383 137.02C81.7383 138.621 81.2227 139.852 80.1914 140.711C79.168 141.57 77.6992 142 75.7852 142H69.5625ZM72.5273 134.301V139.633H75.8203C76.75 139.633 77.4766 139.402 78 138.941C78.5234 138.48 78.7852 137.84 78.7852 137.02C78.7852 135.246 77.8789 134.34 76.0664 134.301H72.5273ZM72.5273 132.121H75.4336C76.3555 132.121 77.0742 131.914 77.5898 131.5C78.1133 131.078 78.375 130.484 78.375 129.719C78.375 128.875 78.1328 128.266 77.6484 127.891C77.1719 127.516 76.4258 127.328 75.4102 127.328H72.5273V132.121Z"
          fill="#FFFFFF"/>
    <path d="M60 11.25L11.25 26.25L22.8955 29.8242L33.75 33.1641V43.1543C33.2812 43.7256 32.9297 44.2822 32.6514 44.8682C31.9775 46.2891 31.5527 47.8711 31.1719 49.7461C30.4541 53.3057 30.0732 57.9053 30.0293 62.9443C27.7441 64.9951 26.25 67.9395 26.25 71.25C26.25 76.0401 29.6484 79.4971 33.8818 81.1084C35.5811 86.001 38.4082 91.377 42.4805 95.9326C46.9336 100.898 52.8809 105 60 105C67.1191 105 73.0664 100.898 77.5195 95.9326C81.5918 91.377 84.4189 86.001 86.1182 81.1084C90.3516 79.4971 93.75 76.0401 93.75 71.25C93.75 67.9395 92.2705 64.9512 89.956 62.8858C89.9121 57.8613 89.5312 53.291 88.8281 49.7461C88.4473 47.8711 88.0225 46.2891 87.3486 44.8682C87.0703 44.2822 86.7187 43.7256 86.25 43.1543V33.1641L108.75 26.25L60 11.25ZM60 19.1016L83.2617 26.25L60 33.3984L36.7383 26.25L60 19.1016ZM41.25 35.4785L60 41.25L61.1133 40.9131L78.75 35.4785V44.1797C78.706 44.2383 78.75 44.2529 78.5742 44.3701C77.9883 44.8682 76.7725 45.5859 75.1025 46.2598C71.748 47.5928 66.5478 48.75 60 48.75C53.4521 48.75 48.252 47.5928 44.8975 46.2598C43.2275 45.5859 42.0117 44.8682 41.4258 44.3701C41.25 44.2529 41.2939 44.2383 41.25 44.1797V35.4785ZM38.4961 51.4014C39.5801 52.0606 40.752 52.6758 42.1289 53.2178C46.5381 54.9756 52.5879 56.25 60 56.25C67.4121 56.25 73.4619 54.9756 77.8711 53.2178C79.248 52.6758 80.4199 52.0606 81.5039 51.4014C82.0898 54.4336 82.5 58.8574 82.5 63.75V66.9287L84.375 68.0274C85.5176 68.6719 86.25 69.8291 86.25 71.25C86.25 73.2568 84.7559 74.7949 82.793 74.9561L80.2734 75.1611L79.5264 77.5781C78.2812 81.6358 75.498 86.9385 71.9092 90.9375C68.335 94.9365 64.1602 97.5 60 97.5C55.8398 97.5 51.665 94.9365 48.0908 90.9375C44.502 86.9385 41.7187 81.6358 40.4736 77.5781L39.7266 75.1611L37.207 74.9561C35.2441 74.7949 33.75 73.2568 33.75 71.25C33.75 69.8438 34.4971 68.6865 35.6543 68.0274L37.5732 66.9141L37.5 63.75V63.7061C37.5 58.8428 37.9102 54.4336 38.4961 51.4014ZM30.6445 63.75H33.7646L30.6152 63.8233L30.6445 63.75ZM48.75 67.5C46.6846 67.5 45 69.1846 45 71.25C45 73.3154 46.6846 75 48.75 75C50.8154 75 52.5 73.3154 52.5 71.25C52.5 69.1846 50.8154 67.5 48.75 67.5ZM71.25 67.5C69.1846 67.5 67.5 69.1846 67.5 71.25C67.5 73.3154 69.1846 75 71.25 75C73.3154 75 75 73.3154 75 71.25C75 69.1846 73.3154 67.5 71.25 67.5Z"
          fill="#F6D109"/>
    <path d="M50.0439 157C49.9919 156.896 49.9495 156.71 49.917 156.443C49.4971 156.88 48.9958 157.098 48.4131 157.098C47.8923 157.098 47.4642 156.951 47.1289 156.658C46.7969 156.362 46.6309 155.988 46.6309 155.535C46.6309 154.985 46.8392 154.559 47.2559 154.256C47.6758 153.95 48.265 153.797 49.0234 153.797H49.9023V153.382C49.9023 153.066 49.8079 152.815 49.6191 152.63C49.4303 152.441 49.152 152.347 48.7842 152.347C48.4619 152.347 48.1917 152.428 47.9736 152.591C47.7555 152.754 47.6465 152.951 47.6465 153.182H46.7383C46.7383 152.918 46.8311 152.664 47.0166 152.42C47.2054 152.173 47.4593 151.977 47.7783 151.834C48.1006 151.691 48.4538 151.619 48.8379 151.619C49.4466 151.619 49.9235 151.772 50.2686 152.078C50.6136 152.381 50.7926 152.799 50.8057 153.333V155.765C50.8057 156.25 50.8675 156.635 50.9912 156.922V157H50.0439ZM48.5449 156.312C48.8281 156.312 49.0967 156.238 49.3506 156.092C49.6045 155.945 49.7884 155.755 49.9023 155.521V154.437H49.1943C48.0876 154.437 47.5342 154.76 47.5342 155.408C47.5342 155.691 47.6286 155.913 47.8174 156.072C48.0062 156.232 48.2487 156.312 48.5449 156.312ZM52.002 154.314C52.002 153.504 52.194 152.853 52.5781 152.361C52.9622 151.867 53.4652 151.619 54.0869 151.619C54.7054 151.619 55.1953 151.831 55.5566 152.254V149.5H56.46V157H55.6299L55.5859 156.434C55.2246 156.876 54.7217 157.098 54.0771 157.098C53.4652 157.098 52.9655 156.847 52.5781 156.346C52.194 155.844 52.002 155.19 52.002 154.383V154.314ZM52.9053 154.417C52.9053 155.016 53.029 155.485 53.2764 155.823C53.5238 156.162 53.8656 156.331 54.3018 156.331C54.8747 156.331 55.293 156.074 55.5566 155.56V153.133C55.2865 152.635 54.8714 152.386 54.3115 152.386C53.8688 152.386 53.5238 152.557 53.2764 152.898C53.029 153.24 52.9053 153.746 52.9053 154.417ZM58.7158 151.717L58.7402 152.303C59.1276 151.847 59.6501 151.619 60.3076 151.619C61.0465 151.619 61.5495 151.902 61.8164 152.469C61.9922 152.215 62.2201 152.01 62.5 151.854C62.7832 151.697 63.1169 151.619 63.501 151.619C64.6598 151.619 65.249 152.233 65.2686 153.46V157H64.3652V153.514C64.3652 153.136 64.279 152.854 64.1064 152.669C63.9339 152.48 63.6442 152.386 63.2373 152.386C62.902 152.386 62.6237 152.487 62.4023 152.688C62.181 152.887 62.0524 153.156 62.0166 153.494V157H61.1084V153.538C61.1084 152.77 60.7324 152.386 59.9805 152.386C59.388 152.386 58.9827 152.638 58.7646 153.143V157H57.8613V151.717H58.7158ZM67.6172 157H66.7139V151.717H67.6172V157ZM66.6406 150.315C66.6406 150.169 66.6846 150.045 66.7725 149.944C66.8636 149.843 66.9971 149.793 67.1729 149.793C67.3486 149.793 67.4821 149.843 67.5732 149.944C67.6644 150.045 67.71 150.169 67.71 150.315C67.71 150.462 67.6644 150.584 67.5732 150.682C67.4821 150.779 67.3486 150.828 67.1729 150.828C66.9971 150.828 66.8636 150.779 66.7725 150.682C66.6846 150.584 66.6406 150.462 66.6406 150.315ZM69.9219 151.717L69.9512 152.381C70.3548 151.873 70.8822 151.619 71.5332 151.619C72.6497 151.619 73.2129 152.249 73.2227 153.509V157H72.3193V153.504C72.3161 153.123 72.2282 152.841 72.0557 152.659C71.8864 152.477 71.6211 152.386 71.2598 152.386C70.9668 152.386 70.7096 152.464 70.4883 152.62C70.2669 152.776 70.0944 152.981 69.9707 153.235V157H69.0674V151.717H69.9219Z"
          fill="#FFFFFF"/>
</svg>
