<svg width="96" height="95" viewBox="0 0 96 95" fill="none" xmlns="http://www.w3.org/2000/svg">
    <path d="M48 8.88159L9.51318 20.7237L18.707 23.5455L27.2763 26.1822V34.0692C26.9063 34.5202 26.6287 34.9597 26.409 35.4223C25.877 36.544 25.5417 37.793 25.241 39.2732C24.6743 42.0834 24.3736 45.7147 24.3389 49.6929C22.5349 51.312 21.3553 53.6364 21.3553 56.25C21.3553 60.0316 24.0383 62.7609 27.3804 64.033C28.7219 67.8955 30.9539 72.1397 34.1688 75.7363C37.6844 79.6567 42.3797 82.8948 48 82.8948C53.6204 82.8948 58.3156 79.6567 61.8312 75.7363C65.0462 72.1397 67.2781 67.8955 68.6196 64.033C71.9618 62.7609 74.6448 60.0316 74.6448 56.25C74.6448 53.6364 73.4767 51.2773 71.6495 49.6467C71.6148 45.68 71.3142 42.0719 70.7591 39.2732C70.4584 37.793 70.123 36.544 69.591 35.4223C69.3713 34.9597 69.0938 34.5202 68.7237 34.0692V26.1822L86.4869 20.7237L48 8.88159ZM48 15.0802L66.3645 20.7237L48 26.3672L29.6355 20.7237L48 15.0802ZM33.1974 28.0094L48 32.5658L48.8789 32.2998L62.8027 28.0094V34.8787C62.768 34.925 62.8027 34.9365 62.6639 35.0291C62.2013 35.4223 61.2414 35.9889 59.9231 36.5209C57.2748 37.5733 53.1694 38.4869 48 38.4869C42.8307 38.4869 38.7253 37.5733 36.077 36.5209C34.7586 35.9889 33.7987 35.4223 33.3362 35.0291C33.1974 34.9365 33.2321 34.925 33.1974 34.8787V28.0094ZM31.0233 40.58C31.879 41.1005 32.8042 41.5862 33.8913 42.014C37.3722 43.4018 42.1484 44.4079 48 44.4079C53.8517 44.4079 58.6278 43.4018 62.1088 42.014C63.1958 41.5862 64.121 41.1005 64.9768 40.58C65.4394 42.9739 65.7632 46.4664 65.7632 50.329V52.8385L67.2434 53.7058C68.1455 54.2147 68.7237 55.1283 68.7237 56.25C68.7237 57.8344 67.5441 59.0486 65.9945 59.1759L64.0054 59.3378L63.4156 61.2459C62.4326 64.4493 60.2353 68.6357 57.402 71.7928C54.5803 74.9499 51.2844 76.9737 48 76.9737C44.7157 76.9737 41.4198 74.9499 38.598 71.7928C35.7647 68.6357 33.5675 64.4493 32.5845 61.2459L31.9947 59.3378L30.0056 59.1759C28.4559 59.0486 27.2763 57.8344 27.2763 56.25C27.2763 55.1398 27.8661 54.2262 28.7797 53.7058L30.2947 52.8269L30.2369 50.329V50.2943C30.2369 46.4548 30.5607 42.9739 31.0233 40.58ZM24.8247 50.329H27.2879L24.8015 50.3868L24.8247 50.329ZM39.1184 53.2895C37.4878 53.2895 36.1579 54.6194 36.1579 56.25C36.1579 57.8806 37.4878 59.2105 39.1184 59.2105C40.749 59.2105 42.079 57.8806 42.079 56.25C42.079 54.6194 40.749 53.2895 39.1184 53.2895ZM56.8816 53.2895C55.251 53.2895 53.9211 54.6194 53.9211 56.25C53.9211 57.8806 55.251 59.2105 56.8816 59.2105C58.5122 59.2105 59.8421 57.8806 59.8421 56.25C59.8421 54.6194 58.5122 53.2895 56.8816 53.2895Z"
          fill="#FFFFFF"/>
</svg>
